<svg xmlns="http://www.w3.org/2000/svg" xmlns:xlink="http://www.w3.org/1999/xlink" version="1.1" id="Your_Icon" x="0px" y="0px" width="100px" height="100px" viewBox="0 0 100 100" enable-background="new 0 0 100 100" xml:space="preserve">
<g>
	<polygon points="49.745,16.49 54.029,22.588 64.158,23.814 55.291,27.904 62.271,38.015 49.076,31.674 36.643,38.015 42.86,27.904    35.329,23.814 45.235,22.564  "/>
	<path d="M64.422,25.654l-6.494,2.996l9.68,14.017l-18.516-8.898l-17.38,8.866l8.619-14.029l-5-2.715   C26.188,30.852,20,40.266,20,51.078C20,67.047,33.469,80,50.079,80c16.611,0,30.08-12.953,30.08-28.922   C80.158,40.1,73.795,30.551,64.422,25.654z"/>
</g>
</svg>